<?xml version="1.0" standalone="no"?>
<!DOCTYPE svg PUBLIC "-//W3C//DTD SVG 20010904//EN"
 "http://www.w3.org/TR/2001/REC-SVG-20010904/DTD/svg10.dtd">
<svg version="1.0" xmlns="http://www.w3.org/2000/svg"
 width="500.000000pt" height="500.000000pt" viewBox="0 0 500.000000 500.000000"
 preserveAspectRatio="xMidYMid meet">

<g transform="translate(0.000000,500.000000) scale(0.100000,-0.100000)"
fill="#000000" stroke="none">
<path d="M970 3965 l0 -185 210 0 210 0 0 -505 0 -505 190 0 190 0 0 505 0
505 210 0 210 0 0 185 0 185 -610 0 -610 0 0 -185z"/>
<path d="M3855 4059 c-60 -33 -214 -117 -342 -185 l-231 -125 -56 37 c-41 27
-649 284 -673 284 -2 0 -2 -100 -1 -221 l3 -222 196 -71 c108 -39 214 -82 235
-96 51 -33 74 -97 71 -195 l-2 -70 -252 -3 -253 -2 0 -200 0 -200 710 0 710 0
0 200 0 200 -267 2 -268 3 -3 90 -3 90 271 135 270 135 0 237 c0 131 -1 238
-2 238 -2 -1 -52 -28 -113 -61z"/>
<path d="M3155 2360 c-187 -28 -313 -111 -378 -248 -30 -62 -32 -74 -31 -172
0 -127 21 -189 88 -265 76 -87 191 -142 383 -184 118 -26 186 -55 223 -98 53
-59 36 -139 -36 -169 -43 -18 -145 -18 -187 0 -45 18 -86 70 -93 117 l-7 39
-193 0 -194 0 0 -30 c0 -155 106 -319 251 -388 102 -49 186 -65 334 -65 267 0
438 83 519 253 29 62 31 71 31 185 0 111 -2 124 -28 177 -63 128 -206 212
-474 277 -196 48 -264 111 -221 205 15 33 83 66 137 66 101 0 172 -50 186
-129 l7 -41 189 0 c214 0 198 -9 179 91 -16 85 -73 191 -132 244 -125 113
-345 166 -553 135z"/>
<path d="M840 2025 l0 -205 270 0 270 0 0 -90 0 -90 -270 -135 -270 -135 0
-236 c0 -186 3 -235 13 -231 7 2 161 85 343 184 l332 180 58 -38 c47 -31 640
-279 667 -279 4 0 7 98 7 218 l0 219 -202 72 c-112 40 -218 84 -236 97 -48 37
-64 77 -70 176 l-5 88 257 0 256 0 0 205 0 205 -710 0 -710 0 0 -205z"/>
</g>
</svg>
